<?xml version="1.0" standalone="no"?>
<!DOCTYPE svg PUBLIC "-//W3C//DTD SVG 20010904//EN"
 "http://www.w3.org/TR/2001/REC-SVG-20010904/DTD/svg10.dtd">
<svg version="1.0" xmlns="http://www.w3.org/2000/svg"
 width="280.000000pt" height="280.000000pt" viewBox="0 0 280.000000 280.000000"
 preserveAspectRatio="xMidYMid meet">

<g transform="translate(0.000000,280.000000) scale(0.100000,-0.100000)"
fill="#000000" stroke="none">
<path d="M0 1400 l0 -1400 1400 0 1400 0 0 1400 0 1400 -1400 0 -1400 0 0
-1400z m1569 794 c25 -18 78 -98 179 -269 36 -60 84 -139 107 -175 23 -36 65
-105 94 -155 69 -119 182 -305 230 -380 21 -33 66 -109 101 -170 35 -60 74
-123 86 -140 12 -16 52 -83 89 -147 59 -103 67 -122 61 -152 -4 -20 -18 -44
-33 -56 -24 -19 -39 -20 -284 -20 l-257 0 -44 35 c-178 144 -332 229 -497 272
-130 35 -335 37 -455 5 -119 -33 -336 -151 -397 -217 -13 -14 -44 -42 -68 -61
-46 -36 -93 -44 -132 -24 -22 12 -49 60 -49 87 0 10 30 81 66 158 120 254 275
588 336 720 32 72 76 166 98 210 21 44 64 136 95 205 30 69 60 132 65 140 5 8
19 37 31 63 40 88 37 87 313 87 206 0 245 -2 265 -16z"/>
<path d="M1281 1988 c7 -13 27 -45 44 -73 33 -51 181 -301 363 -610 55 -93
115 -192 132 -220 18 -27 66 -111 108 -185 105 -189 95 -180 214 -180 54 0 98
3 98 8 0 4 -16 32 -36 62 -20 30 -71 113 -113 183 -164 276 -247 414 -272 452
-14 22 -54 87 -88 145 -34 58 -85 140 -112 183 -27 43 -49 81 -49 84 0 3 -25
43 -55 89 l-55 84 -95 0 -96 0 12 -22z"/>
<path d="M1065 1815 c-20 -44 -47 -105 -60 -136 -13 -31 -33 -72 -44 -90 -11
-19 -47 -96 -80 -171 -33 -75 -73 -163 -90 -195 -44 -86 -121 -259 -121 -271
0 -6 26 3 58 19 31 16 102 41 157 56 92 26 114 28 280 28 195 0 281 -15 422
-71 35 -14 66 -24 68 -22 2 2 -18 39 -44 83 -169 284 -162 272 -233 395 -30
52 -71 120 -90 150 -19 30 -60 100 -91 155 -32 55 -66 111 -76 125 l-19 24
-37 -79z"/>
</g>
</svg>
