<?xml version="1.0" standalone="no"?>
<!DOCTYPE svg PUBLIC "-//W3C//DTD SVG 20010904//EN"
 "http://www.w3.org/TR/2001/REC-SVG-20010904/DTD/svg10.dtd">
<svg version="1.0" xmlns="http://www.w3.org/2000/svg"
 width="1200.000000pt" height="630.000000pt" viewBox="0 0 1200.000000 630.000000"
 preserveAspectRatio="xMidYMid meet">

<g transform="translate(0.000000,630.000000) scale(0.100000,-0.100000)"
fill="#000000" stroke="none">
<path d="M5715 5532 c-164 -279 -571 -968 -903 -1532 -333 -564 -745 -1263
-917 -1555 -172 -291 -461 -782 -643 -1090 -181 -308 -329 -561 -328 -563 2
-1 599 343 1327 764 728 421 1423 824 1545 894 l221 127 359 -207 c1772 -1026
2729 -1578 2731 -1576 3 3 -3074 5226 -3086 5238 -4 4 -141 -221 -306 -500z"/>
<path d="M4749 937 c-691 -364 -1255 -663 -1254 -665 2 -2 189 57 417 132 227
74 609 198 848 276 573 186 856 279 1075 351 l181 59 134 -44 c530 -173 2350
-765 2370 -770 38 -11 -67 46 -700 379 -322 169 -630 332 -685 361 -698 368
-1111 584 -1119 584 -6 0 -576 -299 -1267 -663z"/>
</g>
</svg>
