<?xml version="1.0" standalone="no"?>
<!DOCTYPE svg PUBLIC "-//W3C//DTD SVG 20010904//EN"
 "http://www.w3.org/TR/2001/REC-SVG-20010904/DTD/svg10.dtd">
<svg version="1.0" xmlns="http://www.w3.org/2000/svg"
 width="1536.000000pt" height="1024.000000pt" viewBox="0 0 1536.000000 1024.000000"
 preserveAspectRatio="xMidYMid meet">

<g transform="translate(0.000000,1024.000000) scale(0.100000,-0.100000)"
fill="#000000" stroke="none">
<path d="M0 5120 l0 -5120 7680 0 7680 0 0 5120 0 5120 -7680 0 -7680 0 0
-5120z m4592 1775 c91 -154 201 -341 243 -415 75 -129 453 -766 916 -1540 120
-200 216 -366 214 -368 -2 -2 -50 25 -107 61 -132 82 -283 174 -583 355 -354
213 -368 221 -520 319 -77 49 -188 118 -248 152 l-107 62 -98 -57 c-53 -32
-138 -85 -187 -118 -83 -56 -351 -219 -680 -415 -71 -43 -188 -114 -260 -158
-293 -182 -360 -222 -364 -218 -2 2 55 100 126 217 71 117 226 373 345 568
118 195 311 515 430 710 118 195 307 501 420 680 112 179 222 355 244 392 21
37 42 64 45 60 3 -4 80 -133 171 -287z m5818 -674 l0 -169 -42 10 c-63 14
-153 5 -186 -18 -47 -35 -67 -88 -70 -191 l-4 -93 121 0 121 0 0 -155 0 -155
-125 0 -125 0 0 -570 0 -570 -205 0 -205 0 0 570 0 570 -102 0 -103 0 3 155 3
155 104 0 105 0 0 105 c0 57 5 128 11 157 36 170 173 311 345 352 36 9 116 15
207 15 l147 1 0 -169z m-2740 -881 l0 -1030 -207 0 -208 0 0 75 c0 41 -2 75
-4 75 -2 0 -30 -25 -62 -55 -34 -33 -87 -69 -126 -88 -64 -30 -75 -32 -203
-35 -118 -3 -144 -1 -199 18 -196 66 -344 236 -413 476 -20 70 -23 100 -22
259 0 167 2 186 27 268 97 314 317 497 597 497 141 0 254 -45 347 -137 29 -29
55 -53 58 -53 3 0 5 171 5 380 l0 380 205 0 205 0 0 -1030z m3350 0 l0 -1030
-210 0 -210 0 0 1030 0 1030 210 0 210 0 0 -1030z m-2125 426 c188 -65 316
-184 397 -371 40 -91 58 -198 58 -340 l0 -125 -491 0 -492 0 7 -57 c19 -163
117 -261 272 -271 133 -8 230 42 275 143 l18 42 183 -39 c100 -21 184 -41 187
-44 3 -3 -12 -40 -34 -82 -79 -152 -245 -283 -411 -326 -83 -21 -326 -22 -409
-1 -110 28 -219 89 -298 168 -83 83 -129 156 -168 267 -110 310 -32 684 183
887 144 134 287 185 513 179 111 -2 142 -7 210 -30z m2858 -189 c155 -485 249
-767 255 -767 4 0 42 109 85 243 43 133 112 347 154 475 l75 232 209 0 208 0
-15 -35 c-19 -46 -263 -719 -338 -930 -30 -88 -90 -268 -132 -400 -42 -132
-94 -277 -116 -322 -74 -153 -203 -276 -335 -319 -49 -16 -88 -19 -243 -19
l-185 0 -3 183 -2 183 73 -7 c179 -16 315 66 336 203 8 54 40 -33 -373 987
-102 252 -186 462 -186 467 0 5 107 9 238 9 l237 0 58 -183z m-7247 -617 c150
-92 554 -333 779 -465 110 -64 236 -140 280 -168 44 -28 103 -63 130 -79 28
-15 46 -28 42 -28 -11 0 -209 64 -497 161 -129 43 -242 79 -252 79 -9 0 -117
29 -240 64 -122 36 -255 72 -293 81 l-71 16 -314 -95 c-173 -52 -340 -104
-370 -116 -107 -43 -660 -229 -660 -222 0 4 10 14 23 21 62 40 696 429 852
524 423 258 471 286 481 287 6 0 55 -27 110 -60z"/>
<path d="M6858 5445 c-71 -23 -147 -99 -188 -187 -31 -66 -34 -84 -38 -183 -5
-129 7 -200 49 -284 50 -100 136 -158 249 -168 200 -18 340 151 340 412 0 188
-71 340 -185 395 -57 28 -165 35 -227 15z"/>
<path d="M8609 5470 c-72 -12 -116 -40 -163 -102 -32 -42 -71 -157 -58 -170 5
-5 134 -7 288 -6 l279 3 -2 37 c-4 60 -41 135 -89 177 -60 53 -162 77 -255 61z"/>
</g>
</svg>
