<svg width="699" height="300" viewBox="0 0 699 300" fill="none" xmlns="http://www.w3.org/2000/svg">
<path d="M164.782 63.7108C170.069 85.6186 168.282 104.889 160.789 106.753C153.297 108.617 142.936 92.3688 137.649 70.461C132.361 48.5532 134.148 29.2823 141.641 27.4183C149.134 25.5543 159.494 41.803 164.782 63.7108Z" fill="black"/>
<path d="M252.095 82.5463C240.385 70.1352 217.087 73.4991 200.058 90.0599C183.03 106.621 178.718 130.107 190.428 142.518C202.139 154.929 225.436 151.565 242.465 135.004C259.493 118.444 263.805 94.9574 252.095 82.5463Z" fill="black"/>
<path d="M158.958 272.59C166.451 270.726 167.975 250.365 162.363 227.112C156.751 203.86 146.127 186.521 138.635 188.385C131.142 190.249 129.618 210.61 135.23 233.863C140.842 257.115 151.466 274.454 158.958 272.59Z" fill="black"/>
<path d="M82.5791 93.9088C104.196 100.283 119.991 111.467 117.859 118.888C115.727 126.308 96.4749 127.156 74.8584 120.782C53.2418 114.407 37.4465 103.224 39.5785 95.803C41.7106 88.3823 60.9626 87.5342 82.5791 93.9088Z" fill="black"/>
<path d="M222.88 177.704C245.823 184.47 262.694 195.971 260.562 203.391C258.43 210.812 238.102 211.343 215.159 204.577C192.216 197.811 175.345 186.311 177.477 178.89C179.609 171.469 199.936 170.938 222.88 177.704Z" fill="black"/>
<path d="M106.903 162.134C101.542 156.577 83.9594 164.665 67.6306 180.198C51.3017 195.731 42.4101 212.828 47.7707 218.385C53.1313 223.941 70.714 215.854 87.0429 200.321C103.372 184.788 112.263 167.691 106.903 162.134Z" fill="black"/>
<path d="M346.861 96.205V91.4527H327.272V218.182H346.861V184.035C346.861 180.339 346.861 177.347 346.504 173.299H346.861C353.984 184.916 366.093 191.076 380.338 191.076C404.378 191.076 425.391 172.947 425.391 139.328C425.391 106.414 404.378 88.6365 380.338 88.6365C366.627 88.6365 354.518 94.6209 346.861 106.414H346.504C346.861 102.541 346.861 99.7253 346.861 96.205ZM375.352 174.355C357.189 174.179 346.682 158.866 346.682 139.152C346.682 120.495 357.189 105.534 375.352 105.358C393.16 105.182 404.913 118.911 404.913 139.328C404.913 160.274 393.16 174.531 375.352 174.355Z" fill="#0D0D0D"/>
<path d="M528.251 131.056C528.251 106.766 508.663 88.6365 481.952 88.6365C453.46 88.6365 433.694 107.822 433.694 139.856C433.694 170.658 453.104 191.076 481.952 191.076C505.635 191.076 523.265 177.347 527.36 158.514H505.992C502.608 168.018 493.348 174.355 481.952 174.355C467.35 174.355 456.665 163.97 454.35 146.721H528.251V131.056ZM481.952 105.358C496.376 105.358 506.348 115.214 508.485 129.471H454.528C457.021 115.742 467.172 105.358 481.952 105.358Z" fill="#0D0D0D"/>
<path d="M542.651 188.26H562.239V133.696C562.239 115.038 572.567 105.358 588.594 105.358H599.1V88.6365H590.731C576.307 88.6365 567.403 98.1412 562.239 106.414H561.883V91.4527H542.651V188.26Z" fill="#0D0D0D"/>
<path d="M690.672 171.363C688.001 171.363 686.754 169.778 686.754 166.61V124.015C686.754 103.598 676.782 88.6365 647.4 88.6365C618.908 88.6365 605.909 102.718 604.484 122.783H624.072C625.319 111.87 634.045 105.358 647.4 105.358C658.797 105.358 666.632 110.286 666.632 118.031C666.632 124.367 662.18 128.239 647.578 128.239H639.743C616.415 128.239 600.745 137.568 600.745 158.866C600.745 181.219 617.306 191.428 636.716 191.428C651.14 191.428 663.427 185.092 668.235 171.539C668.769 181.395 675.358 188.26 687.823 188.26H698.863V171.363H690.672ZM667.166 143.2C667.166 165.026 655.235 174.531 639.921 174.531C626.565 174.531 621.223 166.786 621.223 158.866C621.223 151.297 625.853 145.137 640.099 145.137H642.948C656.66 145.137 665.207 140.384 666.988 132.112H667.166V143.2Z" fill="#0D0D0D"/>
</svg>
